<svg width="128" height="128" viewBox="0 0 128 128" fill="none" xmlns="http://www.w3.org/2000/svg">
<path d="M105 126H31C27.6863 126 25 123.314 25 120V8C25 4.68629 27.6863 2 31 2H89.6863C91.2776 2 92.8037 2.63214 93.9289 3.75736L109.243 19.0711C110.368 20.1963 111 21.7224 111 23.3137V120C111 123.314 108.314 126 105 126Z" stroke="#4E4E4E" stroke-width="4"/>
<rect x="33" y="15" width="52" height="6" fill="#4E4E4E"/>
<rect x="33" y="29" width="70" height="6" fill="#4E4E4E"/>
<rect x="33" y="43" width="42" height="6" fill="#4E4E4E"/>
<rect x="33" y="57" width="42" height="6" fill="#4E4E4E"/>
<rect x="33" y="71" width="70" height="6" fill="#4E4E4E"/>
<rect x="33" y="85" width="70" height="6" fill="#4E4E4E"/>
<rect x="33" y="99" width="70" height="6" fill="#4E4E4E"/>
<rect x="83" y="45" width="18" height="16" stroke="#4E4E4E" stroke-width="4"/>
<rect x="27" y="116" width="82" height="4" fill="#4E4E4E"/>
</svg>
