<svg width="32" height="32" viewBox="0 0 32 32" fill="none" xmlns="http://www.w3.org/2000/svg">
<path d="M12.8516 6.75L12.4924 7.0979L12.8516 6.75ZM8 14.5C7.72386 14.5 7.5 14.7239 7.5 15C7.5 15.2761 7.72386 15.5 8 15.5V14.5ZM18 15.5C18.2761 15.5 18.5 15.2761 18.5 15C18.5 14.7239 18.2761 14.5 18 14.5V15.5ZM8 18.5C7.72386 18.5 7.5 18.7239 7.5 19C7.5 19.2761 7.72386 19.5 8 19.5V18.5ZM21 19.5C21.2761 19.5 21.5 19.2761 21.5 19C21.5 18.7239 21.2761 18.5 21 18.5V19.5ZM8 22.5C7.72386 22.5 7.5 22.7239 7.5 23C7.5 23.2761 7.72386 23.5 8 23.5V22.5ZM18 23.5C18.2761 23.5 18.5 23.2761 18.5 23C18.5 22.7239 18.2761 22.5 18 22.5V23.5ZM15.442 9.42395L15.8011 9.07605L15.442 9.42395ZM10.2612 4.07605L9.90205 4.42395L10.2612 4.07605ZM0 5V28H1V5H0ZM1.5 4.5H10.0816V3.5H1.5V4.5ZM15.6215 10H31.5V9H15.6215V10ZM31 9.5V28H32V9.5H31ZM30.5 28.5H1.5V29.5H30.5V28.5ZM9.90205 4.42395L12.4924 7.0979L13.2107 6.4021L10.6203 3.72815L9.90205 4.42395ZM12.4924 7.0979L15.0828 9.77185L15.8011 9.07605L13.2107 6.4021L12.4924 7.0979ZM12.8516 7.25H30.5V6.25H12.8516V7.25ZM31 7.75V9.5H32V7.75H31ZM8 15.5H18V14.5H8V15.5ZM8 19.5H21V18.5H8V19.5ZM8 23.5H18V22.5H8V23.5ZM30.5 7.25C30.7761 7.25 31 7.47386 31 7.75H32C32 6.92157 31.3284 6.25 30.5 6.25V7.25ZM15.6215 9C15.6892 9 15.754 9.02744 15.8011 9.07605L15.0828 9.77185C15.2241 9.91768 15.4185 10 15.6215 10V9ZM10.0816 4.5C10.0139 4.5 9.94915 4.47256 9.90205 4.42395L10.6203 3.72815C10.479 3.58232 10.2847 3.5 10.0816 3.5V4.5ZM0 28C0 28.8284 0.671574 29.5 1.5 29.5V28.5C1.22386 28.5 1 28.2761 1 28H0ZM31 28C31 28.2761 30.7761 28.5 30.5 28.5V29.5C31.3284 29.5 32 28.8284 32 28H31ZM1 5C1 4.72386 1.22386 4.5 1.5 4.5V3.5C0.671573 3.5 0 4.17157 0 5H1Z" fill="#484848"/>
</svg>
