<svg width="32" height="32" viewBox="0 0 32 32" fill="none" xmlns="http://www.w3.org/2000/svg">
<path d="M14.7923 0.329916C12.5722 0.556796 10.9101 1.01696 9.08865 1.91232C7.48801 2.69728 6.34721 3.50688 5.04705 4.76416C3.71009 6.0704 2.73473 7.41376 1.90689 9.09408C1.13409 10.6765 0.661767 12.2282 0.398087 14.0618C0.293767 14.7856 0.293767 17.2019 0.398087 17.9258C0.833607 20.9677 2.01121 23.697 3.86337 25.9478C8.19329 31.2038 15.369 33.0806 21.6922 30.615C25.7398 29.0326 29.0272 25.7392 30.6218 21.6669C31.272 19.9926 31.6032 18.3859 31.6704 16.5152C31.8176 12.271 30.2413 8.18048 27.273 5.11392C25.9235 3.7216 24.6051 2.75872 22.8877 1.91872C21.3421 1.15808 19.9194 0.710396 18.1958 0.446716C17.577 0.354556 15.3261 0.274876 14.7923 0.329916ZM18.0429 1.42175C21.2259 1.89407 24.1514 3.35968 26.3898 5.60448C28.7082 7.93504 30.1309 10.8237 30.5971 14.1539C30.7136 15.0064 30.6954 17.2022 30.5664 18.0483C30.1862 20.52 29.2294 22.8381 27.7942 24.7578C27.5549 25.0829 27.2301 25.4816 27.0704 25.6531L26.7882 25.9597L26.7206 25.7574C26.3894 24.8314 25.7088 23.7763 24.8992 22.9238C23.2064 21.1453 20.9987 20.0659 18.1651 19.6365C17.1347 19.4771 14.841 19.4771 13.8106 19.6365C11.1427 20.0413 9.08801 20.9856 7.41985 22.5741C7.07105 22.912 6.60481 23.4272 6.38401 23.7155C6.01601 24.2125 5.43329 25.2611 5.26177 25.7456L5.18817 25.9603L4.90593 25.6538C4.74657 25.4819 4.42145 25.0835 4.18209 24.7584C1.34881 20.9677 0.527047 16 1.98049 11.4982C3.44609 6.97823 6.97889 3.44544 11.505 1.98592C12.5354 1.64864 13.4061 1.47679 14.8842 1.31135C15.3322 1.26239 17.4541 1.33599 18.0429 1.42175Z" fill="#484848"/>
<path d="M14.8845 6.05216C14.2528 6.1872 13.6518 6.42016 13.0752 6.75744C12.4803 7.10688 11.5603 8.03328 11.1923 8.66496C10.1008 10.5232 10.1619 12.8109 11.3642 14.6202C12.4189 16.2147 14.3018 17.1654 16.2032 17.0797C17.0618 17.0368 17.6934 16.871 18.4723 16.4909C19.5638 15.951 20.4227 15.0925 20.9622 14.001C21.416 13.081 21.5264 12.5904 21.5264 11.5171C21.5264 10.4685 21.416 9.97152 20.9929 9.09472C19.8829 6.80032 17.3437 5.53696 14.8845 6.05216Z" fill="#484848"/>
</svg>
