<svg width="32" height="32" viewBox="0 0 32 32" fill="none" xmlns="http://www.w3.org/2000/svg">
<path d="M16 0.320007C7.34081 0.320007 0.320007 7.33761 0.320007 16C0.320007 24.6624 7.34081 31.68 16 31.68C24.6592 31.68 31.68 24.6592 31.68 16C31.68 7.33761 24.6592 0.320007 16 0.320007ZM16 30.256C8.12801 30.256 1.74401 23.872 1.74401 16C1.74401 8.12481 8.12801 1.74401 16 1.74401C23.872 1.74401 30.256 8.12801 30.256 16C30.256 23.872 23.872 30.256 16 30.256Z" fill="#484848"/>
<path d="M14.1568 8.39681C14.1568 9.43361 14.9952 10.272 16.032 10.272C17.0688 10.272 17.9072 9.43361 17.9072 8.39681C17.9072 7.36001 17.0688 6.52161 16.032 6.52161C14.9984 6.52161 14.1568 7.36001 14.1568 8.39681Z" fill="#484848"/>
<path d="M17.3056 12.7744V12.1184V11.5232H13.5552V12.7744H14.8064V23.408H13.5552V24.6592H18.5568V23.408H17.3056V12.7744V12.7744Z" fill="#484848"/>
</svg>
