<svg width="32" height="32" viewBox="0 0 32 32" fill="none" xmlns="http://www.w3.org/2000/svg">
<g clip-path="url(#clip0)">
<path d="M15.8261 9.39145C12.2778 9.39145 9.39117 12.2781 9.39117 15.8264C9.39117 19.3746 12.2778 22.2613 15.8261 22.2613C19.3744 22.2613 22.261 19.3746 22.261 15.8264C22.261 12.2781 19.3744 9.39145 15.8261 9.39145ZM15.8261 21.2178C12.8532 21.2178 10.4347 18.7993 10.4347 15.8264C10.4347 12.8534 12.8532 10.4349 15.8261 10.4349C18.799 10.4349 21.2175 12.8534 21.2175 15.8264C21.2175 18.7993 18.799 21.2178 15.8261 21.2178Z" fill="#484848"/>
<path d="M31.5569 13.218L27.394 12.5881C27.1651 11.8166 26.8559 11.0674 26.4719 10.3533L28.9679 6.9678C29.121 6.76015 29.0994 6.47179 28.9171 6.28918L25.7115 3.08389C25.5289 2.90163 25.2405 2.87971 25.0329 3.03276L21.6582 5.52047C20.941 5.13089 20.1869 4.81715 19.4091 4.58445L18.7827 0.443836C18.7441 0.188526 18.5249 0 18.2668 0H13.7339C13.4758 0 13.2566 0.188526 13.218 0.443836L12.5916 4.58445C11.8138 4.81715 11.0597 5.13124 10.3425 5.52047L6.9678 3.03276C6.76015 2.87971 6.47179 2.90128 6.28918 3.08389L3.08389 6.28918C2.90163 6.47144 2.87971 6.76015 3.03276 6.9678L5.52882 10.3533C5.14481 11.0674 4.83558 11.8166 4.60671 12.5881L0.443836 13.218C0.188526 13.2566 0 13.4758 0 13.7339V18.2668C0 18.5249 0.188526 18.7441 0.443488 18.7827L4.62688 19.4157C4.85819 20.1789 5.16672 20.918 5.5476 21.6213L3.03241 25.0329C2.87937 25.2405 2.90128 25.5289 3.08355 25.7115L6.28883 28.9168C6.4711 29.0994 6.7598 29.121 6.96746 28.9679L10.3901 26.4447C11.09 26.8204 11.8246 27.1244 12.5815 27.3515L13.2177 31.5569C13.2563 31.8122 13.4754 32.0007 13.7335 32.0007H18.2665C18.5246 32.0007 18.7437 31.8122 18.7823 31.5569L19.4185 27.3515C20.1754 27.1244 20.91 26.8204 21.6099 26.4447L25.0325 28.9679C25.2402 29.121 25.5286 29.0991 25.7112 28.9168L28.9168 25.7115C29.0991 25.5292 29.121 25.2405 28.9676 25.0329L26.4524 21.6213C26.8336 20.918 27.1422 20.1789 27.3731 19.4157L31.5565 18.7827C31.8115 18.7441 32 18.5249 32 18.2668V13.7339C32.0003 13.4761 31.8118 13.2566 31.5569 13.218ZM30.9568 17.8181L26.8861 18.4341C26.6816 18.4651 26.5147 18.614 26.4604 18.8133C26.2155 19.7159 25.8524 20.5855 25.3811 21.3984C25.2767 21.5782 25.2889 21.8026 25.4124 21.9699L27.8611 25.2913L25.2903 27.8622L21.9587 25.4061C21.7918 25.2833 21.5685 25.2705 21.3893 25.3738C20.5785 25.8395 19.7135 26.1978 18.8171 26.4381C18.6171 26.4921 18.4675 26.659 18.4366 26.8642L17.8174 30.9579H14.1819L13.5627 26.8642C13.5318 26.6594 13.3822 26.4921 13.1822 26.4381C12.2858 26.1978 11.4208 25.8395 10.61 25.3738C10.4308 25.2708 10.2072 25.2837 10.0406 25.4061L6.70902 27.8622L4.13818 25.2913L6.58693 21.9699C6.71006 21.8026 6.72258 21.5782 6.61823 21.3984C6.14692 20.5858 5.78378 19.7159 5.5389 18.8133C5.48464 18.6136 5.31768 18.4651 5.11315 18.4341L1.04246 17.8181V14.1826L5.09472 13.5697C5.30029 13.5387 5.46795 13.3885 5.52116 13.1874C5.76221 12.2775 6.12465 11.3982 6.5991 10.5738C6.70241 10.3943 6.68954 10.1707 6.56675 10.004L4.13818 6.70971L6.70902 4.13887L9.99361 6.56014C10.1609 6.68328 10.3853 6.6958 10.5654 6.5911C11.3916 6.11109 12.2754 5.74343 13.1916 5.49821C13.3919 5.44464 13.5415 5.27733 13.5725 5.07211L14.1819 1.04315H17.8174L18.4268 5.07211C18.4578 5.27733 18.6074 5.44464 18.8077 5.49821C19.7239 5.74343 20.6074 6.11109 21.4339 6.5911C21.6137 6.69614 21.838 6.68328 22.0057 6.56014L25.2903 4.13887L27.8611 6.70971L25.4326 10.004C25.3098 10.1707 25.2969 10.3943 25.4002 10.5738C25.8743 11.3982 26.2371 12.2775 26.4781 13.1874C26.5314 13.3885 26.699 13.5384 26.9046 13.5697L30.9568 14.1826V17.8181Z" fill="#484848"/>
</g>
<defs>
<clipPath id="clip0">
<rect width="32" height="32" fill="white"/>
</clipPath>
</defs>
</svg>
