<svg width="32" height="32" viewBox="0 0 32 32" fill="none" xmlns="http://www.w3.org/2000/svg">
<path d="M18 2H3C2.44772 2 2 2.44771 2 3V29C2 29.5523 2.44772 30 3 30H18" stroke="#484848" stroke-linecap="round"/>
<path d="M26.3536 16.3536C26.5488 16.1583 26.5488 15.8417 26.3536 15.6464L23.1716 12.4645C22.9763 12.2692 22.6597 12.2692 22.4645 12.4645C22.2692 12.6597 22.2692 12.9763 22.4645 13.1716L25.2929 16L22.4645 18.8284C22.2692 19.0237 22.2692 19.3403 22.4645 19.5355C22.6597 19.7308 22.9763 19.7308 23.1716 19.5355L26.3536 16.3536ZM10 16.5H26V15.5H10V16.5Z" fill="#484848"/>
</svg>
