<svg width="32" height="32" viewBox="0 0 32 32" fill="none" xmlns="http://www.w3.org/2000/svg">
<path d="M31.2889 5.84444H12.0889C12.0782 5.84444 12.0676 5.848 12.0604 5.848L9.78133 3.24178C9.64622 3.08889 9.45067 3 9.24444 3H0.711111C0.32 3 0 3.32 0 3.71111V27.8889C0 28.28 0.32 28.6 0.711111 28.6H31.2889C31.68 28.6 32 28.28 32 27.8889V12.2444V9.4V6.55556C32 6.16444 31.68 5.84444 31.2889 5.84444ZM30.5778 7.26667V8.68889H14.5458L13.3013 7.26667H30.5778ZM30.5778 27.1778H1.42222V4.42222H8.92089L13.6853 9.86933C13.8204 10.0222 14.016 10.1111 14.2222 10.1111H30.5778V12.2444V27.1778ZM8.88889 15.0889C8.88889 14.6978 9.20889 14.3778 9.6 14.3778H17.4222C17.8133 14.3778 18.1333 14.6978 18.1333 15.0889C18.1333 15.48 17.8133 15.8 17.4222 15.8H9.6C9.20889 15.8 8.88889 15.48 8.88889 15.0889ZM22.4 18.6444C22.4 19.0356 22.08 19.3556 21.6889 19.3556H9.6C9.20889 19.3556 8.88889 19.0356 8.88889 18.6444C8.88889 18.2533 9.20889 17.9333 9.6 17.9333H21.6889C22.08 17.9333 22.4 18.2533 22.4 18.6444ZM22.4 22.2C22.4 22.5911 22.08 22.9111 21.6889 22.9111H9.6C9.20889 22.9111 8.88889 22.5911 8.88889 22.2C8.88889 21.8089 9.20889 21.4889 9.6 21.4889H21.6889C22.08 21.4889 22.4 21.8089 22.4 22.2Z" fill="#484848"/>
</svg>
